<svg width="1026" height="1026" viewBox="0 0 1026 1026" fill="none" xmlns="http://www.w3.org/2000/svg">
<path fill-rule="evenodd" clip-rule="evenodd" fill="white" d="M799.154 187.342C810.179 185.867 822.917 189.049 832.349 199.123C849.992 217.966 857.327 246.149 848.824 280.67C859.356 283.932 869.069 292.076 872.891 304.913L873.305 306.418L873.635 307.794C876.839 322.047 873.682 337.045 867.08 351.153C861.693 362.664 853.372 375.02 841.702 388.364C852.599 410.609 864.882 443.794 864.041 476.454C863.597 493.694 867.047 502.019 869.464 506.619C871.138 509.805 872.422 511.531 875.254 515.975C877.142 518.938 882.186 526.652 883.75 536.766C883.69 536.403 883.876 537.125 885.175 540.841C886.456 544.508 888.601 550.667 889.867 557.878C892.489 572.82 891.02 590.37 879.857 608.498C878.26 622.9 871.893 641.557 856.866 659.837C839.066 681.492 748.094 825.383 529.007 837.421C457.238 842.455 292.323 818.661 192.162 681.036C177.407 670.008 155.669 646.677 151.546 613.011C140.497 601.399 131.701 582.534 138.238 558.477C141.927 544.904 149.313 528.165 153.94 517.024C156.55 510.739 158.465 505.886 159.64 502.248C159.82 501.691 159.964 501.213 160.081 500.808C159.699 494.302 160.397 487.038 161.108 481.365C162.178 472.836 164.039 462.453 166.8 451.215C171.178 433.394 178.181 411.958 188.855 391.865C181.804 383.513 174.5 373.832 168.62 363.85C164.137 356.24 159.679 347.129 157.253 337.386C154.885 327.879 153.592 314.155 160.374 300.591C163.049 295.242 168.326 286.54 177.957 281.009C174.753 261.966 176.028 240.54 186.039 218.433L186.576 217.288C197.961 193.933 225.361 190.109 243.418 200.693L244.285 201.214L250.065 204.777C264.063 213.315 281.43 223.308 297.888 231.623C307.307 236.382 316.007 240.38 323.355 243.219C325.934 244.215 328.217 245.012 330.197 245.637C366.881 224.026 441.181 192.392 520.512 197.784C542.746 198.351 576.915 201.265 610.681 208.256C639.749 214.275 673.57 224.277 698.099 241.901C720.417 236.932 753.172 224.282 773.819 200.964L775.004 199.684C781.079 193.375 789.456 188.64 799.154 187.342ZM160.448 504.602L160.565 505.407C160.519 505.122 160.483 504.832 160.442 504.54C160.445 504.561 160.446 504.582 160.448 504.602ZM217.782 221.339C195.147 262.205 216.637 302.693 233.609 321.905C235.272 323.788 234.153 326.68 231.684 326.218C211.447 322.426 199.307 289.139 188.607 310.54C179.54 328.674 209.009 364.627 226.533 382.074C227.604 383.141 227.734 384.824 226.854 386.053C198.605 425.472 190.076 486.026 191.724 496.154C193.403 506.465 174.697 540.519 168.702 562.581C164.351 578.59 173.878 588.181 180.637 591.854C181.783 592.477 182.533 593.685 182.478 594.988C181.189 625.033 202.54 646.319 214.109 653.676C214.452 653.894 214.745 654.173 214.98 654.506C306.231 783.632 461.021 806.459 527.089 801.715C730.766 790.593 813.692 658.413 832.445 635.6C846.508 618.493 849.099 602.427 848.625 595.333C848.57 594.502 848.804 593.652 849.314 592.993C868.963 567.614 854.078 548.834 852.552 537.581C851.005 526.174 831.285 516.507 832.445 471.461C833.335 436.911 814.704 398.298 804.114 381.313C803.355 380.095 803.564 378.496 804.586 377.487C846.112 336.51 846.516 313.444 840.492 305.238C839.647 304.088 838.01 304.117 836.891 305.002C808.727 327.261 797.95 324.563 795.525 319.548C795.169 318.813 795.375 317.94 795.821 317.256C835.292 256.778 819.562 223.441 804.999 212.709C803.778 211.809 802.1 212.158 801.15 213.341C769.464 252.782 715.262 268.126 690.374 271.111C689.462 271.221 688.592 270.897 687.935 270.256C653.425 236.581 561.229 226.155 519.049 225.163C440.717 219.596 365.857 255.187 337.453 274.133C336.979 274.45 336.475 274.617 335.905 274.611C312.587 274.359 252.032 239.443 221.934 220.307C220.506 219.399 218.602 219.859 217.782 221.339Z"/>
<path d="M217.782 221.339C195.147 262.205 216.637 302.693 233.609 321.905C235.272 323.788 234.153 326.68 231.684 326.218C211.447 322.426 199.307 289.139 188.607 310.54C179.54 328.674 209.009 364.627 226.533 382.074C227.604 383.141 227.734 384.824 226.854 386.053C198.605 425.472 190.076 486.026 191.724 496.154C193.403 506.465 174.697 540.519 168.702 562.581C164.351 578.59 173.878 588.181 180.637 591.854C181.783 592.477 182.533 593.685 182.478 594.988C181.189 625.033 202.54 646.319 214.109 653.676C214.452 653.894 214.745 654.173 214.98 654.506C306.231 783.632 461.021 806.459 527.089 801.715C730.766 790.593 813.692 658.413 832.445 635.6C846.508 618.493 849.099 602.427 848.625 595.333C848.57 594.502 848.804 593.652 849.314 592.993C868.963 567.614 854.078 548.834 852.552 537.581C851.005 526.174 831.285 516.507 832.445 471.461C833.335 436.911 814.704 398.298 804.114 381.313C803.355 380.095 803.564 378.496 804.586 377.487C846.112 336.51 846.516 313.444 840.492 305.238C839.647 304.088 838.01 304.117 836.891 305.002C808.727 327.261 797.95 324.563 795.525 319.548C795.169 318.813 795.375 317.94 795.821 317.256C835.292 256.778 819.562 223.441 804.999 212.709C803.778 211.809 802.1 212.158 801.15 213.341C769.464 252.782 715.262 268.126 690.374 271.111C689.462 271.221 688.592 270.897 687.935 270.256C653.425 236.581 561.229 226.155 519.049 225.163C440.717 219.596 365.857 255.187 337.453 274.133C336.979 274.45 336.475 274.617 335.905 274.611C312.587 274.359 252.032 239.443 221.934 220.307C220.506 219.399 218.602 219.859 217.782 221.339Z" fill="none" stroke="black" stroke-width="4"/>
<path d="M252.39 626.11C194.286 541.399 234.551 446.317 261.947 409.365C370.149 288.433 482.733 384.518 513.061 453.386C513.397 454.148 514.477 454.13 514.887 453.405C595.196 311.234 701.481 351.169 744.747 389.106C830.068 477.792 806.801 576.161 784.502 614.26C706.79 732.715 575.094 710.816 568.343 710.221C568.151 710.204 568.052 710.266 567.89 710.37C521.406 740.266 469.635 722.981 449.189 710.404C448.979 710.275 448.752 710.23 448.509 710.272C407.021 717.432 310.324 710.572 252.39 626.11Z" fill="white"/>
<path d="M480.841 588.225C477.286 563.34 495.419 547.186 512.906 547.189C529.009 547.193 550.514 558.068 547.142 588.225C544.202 614.513 521.618 631.384 512.49 637.206C512.154 637.42 511.742 637.411 511.417 637.182C502.339 630.76 484.327 612.625 480.841 588.225Z" stroke="black" stroke-width="4"/>
<ellipse cx="377.474" cy="512.628" rx="86.4739" ry="91.6284" stroke="black" stroke-width="3"/>
<ellipse cx="68.6905" cy="70.4426" rx="68.6905" ry="70.4426" transform="matrix(-1 0 0 1 461.387 430.871)" fill="#0F0C07"/>
<path d="M388.16 484.58C388.16 497.051 378.051 507.16 365.58 507.16C353.109 507.16 343 497.051 343 484.58C343 472.109 353.109 462 365.58 462C378.051 462 388.16 472.109 388.16 484.58Z" fill="white"/>
<ellipse cx="86.4739" cy="91.6284" rx="86.4739" ry="91.6284" transform="matrix(-1 0 0 1 736.947 421)" stroke="black" stroke-width="3"/>
<ellipse cx="68.6905" cy="70.4426" rx="68.6905" ry="70.4426" transform="matrix(-1 0 0 1 703.941 430.871)" fill="#0F0C07"/>
<circle cx="22.5801" cy="22.5801" r="22.5801" transform="matrix(-1 0 0 1 630.16 462)" fill="white"/>
</svg>
