<svg width="751" height="648" viewBox="0 0 751 648" fill="none" xmlns="http://www.w3.org/2000/svg">
<path d="M659.641 0.340256C670.607 -1.12716 683.278 2.03794 692.66 12.0584C710.209 30.8024 717.505 58.8357 709.048 93.1739C719.523 96.4183 729.185 104.519 732.987 117.288L733.398 118.786L733.727 120.154C736.914 134.332 733.774 149.25 727.206 163.283C721.848 174.734 713.571 187.023 701.963 200.297C712.803 222.425 725.021 255.434 724.184 287.921C723.743 305.069 727.174 313.35 729.578 317.926C731.243 321.095 732.521 322.812 735.338 327.232C737.215 330.179 742.233 337.853 743.788 347.913C743.729 347.552 743.914 348.27 745.206 351.967C746.48 355.614 748.613 361.741 749.872 368.913C752.481 383.776 751.02 401.233 739.916 419.265C738.328 433.59 731.994 452.149 717.047 470.332C699.341 491.872 608.851 635.001 390.925 646.975C319.536 651.982 155.495 628.314 55.8647 491.418C41.1881 480.449 19.565 457.242 15.4634 423.754C4.47355 412.204 -4.27615 393.438 2.22645 369.509C5.89527 356.007 13.2425 339.357 17.8445 328.276C20.4409 322.024 22.3459 317.196 23.5148 313.578C23.6938 313.024 23.8373 312.548 23.9536 312.145C23.5735 305.673 24.2675 298.448 24.9754 292.805C26.0396 284.322 27.8904 273.993 30.6365 262.815C34.9915 245.088 41.9572 223.766 52.5754 203.78C45.5613 195.472 38.2961 185.842 32.4469 175.913C27.9881 168.344 23.5539 159.281 21.1399 149.589C18.7849 140.133 17.4989 126.482 24.2451 112.989C26.9057 107.669 32.1545 99.0125 41.7348 93.5114C38.548 74.5685 39.816 53.2567 49.774 31.2664L50.3079 30.128C61.6328 6.89597 88.8871 3.09247 106.849 13.6202L107.711 14.1387L113.461 17.6827C127.385 26.1757 144.66 36.1154 161.03 44.3868C170.399 49.1204 179.053 53.0971 186.363 55.9208C188.928 56.9117 191.199 57.7048 193.168 58.3264C229.658 36.8302 303.565 5.36333 382.475 10.7267C404.591 11.2904 438.579 14.1895 472.166 21.1438C501.08 27.1306 534.722 37.0791 559.121 54.6106C581.32 49.6677 613.902 37.0849 634.44 13.8902L635.619 12.6168C641.662 6.34145 649.993 1.63136 659.641 0.340256ZM24.3187 315.919L24.4353 316.72C24.3891 316.436 24.3529 316.148 24.3126 315.858C24.3152 315.878 24.3161 315.899 24.3187 315.919Z" fill="white"/>
<g filter="url(#filter0_di_579_54)">
<path d="M81.3405 36.2326C58.8476 76.8594 80.1928 117.109 97.0693 136.227C98.7318 138.11 97.613 141.002 95.1445 140.535C75.0334 136.735 62.9657 103.67 52.3275 124.947C43.3101 142.981 72.6109 178.733 90.043 196.092C91.1143 197.159 91.244 198.842 90.3635 200.07C62.2709 239.281 53.7887 299.504 55.4285 309.577C57.0983 319.834 38.4915 353.707 32.5279 375.652C28.2029 391.569 37.6665 401.107 44.39 404.764C45.5355 405.388 46.2859 406.596 46.2303 407.899C44.9548 437.776 66.1854 458.944 77.692 466.263C78.0353 466.481 78.3284 466.76 78.5632 467.092C169.33 595.532 323.299 618.238 389.016 613.519C591.614 602.456 674.101 470.977 692.755 448.284C706.739 431.273 709.319 415.297 708.85 408.238C708.794 407.406 709.028 406.556 709.539 405.897C729.078 380.656 714.272 361.977 712.755 350.784C711.216 339.438 691.601 329.823 692.755 285.015C693.64 250.656 675.116 212.256 664.581 195.356C663.822 194.137 664.03 192.538 665.052 191.53C706.332 150.793 706.751 127.854 700.767 119.684C699.923 118.532 698.286 118.561 697.167 119.446C669.171 141.569 658.45 138.897 656.033 133.913C655.677 133.179 655.882 132.305 656.328 131.622C695.575 71.4829 679.947 38.3261 665.466 27.642C664.245 26.7412 662.567 27.0903 661.617 28.2731C630.101 67.4929 576.202 82.7547 551.444 85.7259C550.532 85.8353 549.662 85.5114 549.005 84.8703C514.674 51.3782 422.973 41.0086 381.019 40.0214C303.105 34.4844 228.645 69.8837 200.389 88.7299C199.914 89.0466 199.411 89.2143 198.841 89.2081C175.647 88.9524 115.434 54.2356 85.4923 35.2006C84.0645 34.2929 82.16 34.7525 81.3405 36.2326Z" fill="black" fill-opacity="0.08" shape-rendering="crispEdges"/>
</g>
<g filter="url(#filter1_di_579_54)">
<path d="M115.774 438.845C57.9772 354.583 98.0289 260.005 125.279 223.249C232.903 102.963 344.885 198.524 375.059 267.026C375.395 267.789 376.475 267.771 376.885 267.045C456.769 125.64 562.486 165.361 605.522 203.097C690.391 291.313 667.247 389.161 645.067 427.058C567.771 544.878 436.787 523.106 430.054 522.51C429.862 522.493 429.762 522.556 429.6 522.66C383.364 552.395 331.87 535.204 311.532 522.694C311.322 522.564 311.095 522.52 310.852 522.562C269.582 529.683 173.4 522.858 115.774 438.845Z" fill="black" fill-opacity="0.08" shape-rendering="crispEdges"/>
</g>
<g filter="url(#filter2_di_579_54)">
<path d="M343.01 401.162C339.474 376.409 357.511 360.34 374.906 360.344C390.923 360.347 412.314 371.165 408.96 401.162C406.037 427.308 383.577 444.088 374.495 449.882C374.159 450.096 373.747 450.087 373.422 449.857C364.391 443.468 346.477 425.43 343.01 401.162Z" fill="black" fill-opacity="0.08" shape-rendering="crispEdges"/>
</g>
<g filter="url(#filter3_di_579_54)">
<ellipse cx="229.141" cy="337.11" rx="86.0157" ry="91.143" fill="black" fill-opacity="0.08" shape-rendering="crispEdges"/>
</g>
<g filter="url(#filter4_di_579_54)">
<ellipse cx="522.734" cy="337.11" rx="86.0157" ry="91.143" fill="black" fill-opacity="0.08" shape-rendering="crispEdges"/>
</g>
<g filter="url(#filter5_di_579_54)">
<ellipse cx="507.444" cy="323.793" rx="65.1554" ry="70.545" fill="black" fill-opacity="0.08" shape-rendering="crispEdges"/>
</g>
<g filter="url(#filter6_di_579_54)">
<ellipse cx="244.284" cy="325.855" rx="68.3265" ry="70.0694" fill="black" fill-opacity="0.08" shape-rendering="crispEdges"/>
</g>
<g filter="url(#filter7_ddddddii_579_54)">
<circle cx="220.322" cy="301.333" r="22.4605" fill="#F5F5F5"/>
</g>
<g filter="url(#filter8_ddddddii_579_54)">
<circle cx="487.443" cy="301.333" r="22.4605" fill="#F5F5F5"/>
</g>
<defs>
<filter id="filter0_di_579_54" x="31.4355" y="27.1338" width="688.117" height="587.952" filterUnits="userSpaceOnUse" color-interpolation-filters="sRGB">
<feFlood flood-opacity="0" result="BackgroundImageFix"/>
<feColorMatrix in="SourceAlpha" type="matrix" values="0 0 0 0 0 0 0 0 0 0 0 0 0 0 0 0 0 0 127 0" result="hardAlpha"/>
<feOffset dy="1"/>
<feComposite in2="hardAlpha" operator="out"/>
<feColorMatrix type="matrix" values="0 0 0 0 1 0 0 0 0 1 0 0 0 0 1 0 0 0 0.25 0"/>
<feBlend mode="normal" in2="BackgroundImageFix" result="effect1_dropShadow_579_54"/>
<feBlend mode="normal" in="SourceGraphic" in2="effect1_dropShadow_579_54" result="shape"/>
<feColorMatrix in="SourceAlpha" type="matrix" values="0 0 0 0 0 0 0 0 0 0 0 0 0 0 0 0 0 0 127 0" result="hardAlpha"/>
<feOffset dy="1"/>
<feGaussianBlur stdDeviation="1"/>
<feComposite in2="hardAlpha" operator="arithmetic" k2="-1" k3="1"/>
<feColorMatrix type="matrix" values="0 0 0 0 0 0 0 0 0 0 0 0 0 0 0 0 0 0 0.15 0"/>
<feBlend mode="normal" in2="shape" result="effect2_innerShadow_579_54"/>
</filter>
<filter id="filter1_di_579_54" x="86.1973" y="165.852" width="579.482" height="374.274" filterUnits="userSpaceOnUse" color-interpolation-filters="sRGB">
<feFlood flood-opacity="0" result="BackgroundImageFix"/>
<feColorMatrix in="SourceAlpha" type="matrix" values="0 0 0 0 0 0 0 0 0 0 0 0 0 0 0 0 0 0 127 0" result="hardAlpha"/>
<feOffset dy="1"/>
<feComposite in2="hardAlpha" operator="out"/>
<feColorMatrix type="matrix" values="0 0 0 0 1 0 0 0 0 1 0 0 0 0 1 0 0 0 0.25 0"/>
<feBlend mode="normal" in2="BackgroundImageFix" result="effect1_dropShadow_579_54"/>
<feBlend mode="normal" in="SourceGraphic" in2="effect1_dropShadow_579_54" result="shape"/>
<feColorMatrix in="SourceAlpha" type="matrix" values="0 0 0 0 0 0 0 0 0 0 0 0 0 0 0 0 0 0 127 0" result="hardAlpha"/>
<feOffset dy="1"/>
<feGaussianBlur stdDeviation="1"/>
<feComposite in2="hardAlpha" operator="arithmetic" k2="-1" k3="1"/>
<feColorMatrix type="matrix" values="0 0 0 0 0 0 0 0 0 0 0 0 0 0 0 0 0 0 0.15 0"/>
<feBlend mode="normal" in2="shape" result="effect2_innerShadow_579_54"/>
</filter>
<filter id="filter2_di_579_54" x="342.562" y="360.344" width="66.748" height="90.6924" filterUnits="userSpaceOnUse" color-interpolation-filters="sRGB">
<feFlood flood-opacity="0" result="BackgroundImageFix"/>
<feColorMatrix in="SourceAlpha" type="matrix" values="0 0 0 0 0 0 0 0 0 0 0 0 0 0 0 0 0 0 127 0" result="hardAlpha"/>
<feOffset dy="1"/>
<feComposite in2="hardAlpha" operator="out"/>
<feColorMatrix type="matrix" values="0 0 0 0 1 0 0 0 0 1 0 0 0 0 1 0 0 0 0.25 0"/>
<feBlend mode="normal" in2="BackgroundImageFix" result="effect1_dropShadow_579_54"/>
<feBlend mode="normal" in="SourceGraphic" in2="effect1_dropShadow_579_54" result="shape"/>
<feColorMatrix in="SourceAlpha" type="matrix" values="0 0 0 0 0 0 0 0 0 0 0 0 0 0 0 0 0 0 127 0" result="hardAlpha"/>
<feOffset dy="1"/>
<feGaussianBlur stdDeviation="1"/>
<feComposite in2="hardAlpha" operator="arithmetic" k2="-1" k3="1"/>
<feColorMatrix type="matrix" values="0 0 0 0 0 0 0 0 0 0 0 0 0 0 0 0 0 0 0.15 0"/>
<feBlend mode="normal" in2="shape" result="effect2_innerShadow_579_54"/>
</filter>
<filter id="filter3_di_579_54" x="143.125" y="245.967" width="172.031" height="183.286" filterUnits="userSpaceOnUse" color-interpolation-filters="sRGB">
<feFlood flood-opacity="0" result="BackgroundImageFix"/>
<feColorMatrix in="SourceAlpha" type="matrix" values="0 0 0 0 0 0 0 0 0 0 0 0 0 0 0 0 0 0 127 0" result="hardAlpha"/>
<feOffset dy="1"/>
<feComposite in2="hardAlpha" operator="out"/>
<feColorMatrix type="matrix" values="0 0 0 0 1 0 0 0 0 1 0 0 0 0 1 0 0 0 0.25 0"/>
<feBlend mode="normal" in2="BackgroundImageFix" result="effect1_dropShadow_579_54"/>
<feBlend mode="normal" in="SourceGraphic" in2="effect1_dropShadow_579_54" result="shape"/>
<feColorMatrix in="SourceAlpha" type="matrix" values="0 0 0 0 0 0 0 0 0 0 0 0 0 0 0 0 0 0 127 0" result="hardAlpha"/>
<feOffset dy="1"/>
<feGaussianBlur stdDeviation="1"/>
<feComposite in2="hardAlpha" operator="arithmetic" k2="-1" k3="1"/>
<feColorMatrix type="matrix" values="0 0 0 0 0 0 0 0 0 0 0 0 0 0 0 0 0 0 0.15 0"/>
<feBlend mode="normal" in2="shape" result="effect2_innerShadow_579_54"/>
</filter>
<filter id="filter4_di_579_54" x="436.719" y="245.967" width="172.031" height="183.286" filterUnits="userSpaceOnUse" color-interpolation-filters="sRGB">
<feFlood flood-opacity="0" result="BackgroundImageFix"/>
<feColorMatrix in="SourceAlpha" type="matrix" values="0 0 0 0 0 0 0 0 0 0 0 0 0 0 0 0 0 0 127 0" result="hardAlpha"/>
<feOffset dy="1"/>
<feComposite in2="hardAlpha" operator="out"/>
<feColorMatrix type="matrix" values="0 0 0 0 1 0 0 0 0 1 0 0 0 0 1 0 0 0 0.25 0"/>
<feBlend mode="normal" in2="BackgroundImageFix" result="effect1_dropShadow_579_54"/>
<feBlend mode="normal" in="SourceGraphic" in2="effect1_dropShadow_579_54" result="shape"/>
<feColorMatrix in="SourceAlpha" type="matrix" values="0 0 0 0 0 0 0 0 0 0 0 0 0 0 0 0 0 0 127 0" result="hardAlpha"/>
<feOffset dy="1"/>
<feGaussianBlur stdDeviation="1"/>
<feComposite in2="hardAlpha" operator="arithmetic" k2="-1" k3="1"/>
<feColorMatrix type="matrix" values="0 0 0 0 0 0 0 0 0 0 0 0 0 0 0 0 0 0 0.15 0"/>
<feBlend mode="normal" in2="shape" result="effect2_innerShadow_579_54"/>
</filter>
<filter id="filter5_di_579_54" x="442.289" y="253.248" width="130.311" height="142.09" filterUnits="userSpaceOnUse" color-interpolation-filters="sRGB">
<feFlood flood-opacity="0" result="BackgroundImageFix"/>
<feColorMatrix in="SourceAlpha" type="matrix" values="0 0 0 0 0 0 0 0 0 0 0 0 0 0 0 0 0 0 127 0" result="hardAlpha"/>
<feOffset dy="1"/>
<feComposite in2="hardAlpha" operator="out"/>
<feColorMatrix type="matrix" values="0 0 0 0 1 0 0 0 0 1 0 0 0 0 1 0 0 0 0.25 0"/>
<feBlend mode="normal" in2="BackgroundImageFix" result="effect1_dropShadow_579_54"/>
<feBlend mode="normal" in="SourceGraphic" in2="effect1_dropShadow_579_54" result="shape"/>
<feColorMatrix in="SourceAlpha" type="matrix" values="0 0 0 0 0 0 0 0 0 0 0 0 0 0 0 0 0 0 127 0" result="hardAlpha"/>
<feOffset dy="1"/>
<feGaussianBlur stdDeviation="1"/>
<feComposite in2="hardAlpha" operator="arithmetic" k2="-1" k3="1"/>
<feColorMatrix type="matrix" values="0 0 0 0 0 0 0 0 0 0 0 0 0 0 0 0 0 0 0.15 0"/>
<feBlend mode="normal" in2="shape" result="effect2_innerShadow_579_54"/>
</filter>
<filter id="filter6_di_579_54" x="175.957" y="255.785" width="136.652" height="141.139" filterUnits="userSpaceOnUse" color-interpolation-filters="sRGB">
<feFlood flood-opacity="0" result="BackgroundImageFix"/>
<feColorMatrix in="SourceAlpha" type="matrix" values="0 0 0 0 0 0 0 0 0 0 0 0 0 0 0 0 0 0 127 0" result="hardAlpha"/>
<feOffset dy="1"/>
<feComposite in2="hardAlpha" operator="out"/>
<feColorMatrix type="matrix" values="0 0 0 0 1 0 0 0 0 1 0 0 0 0 1 0 0 0 0.25 0"/>
<feBlend mode="normal" in2="BackgroundImageFix" result="effect1_dropShadow_579_54"/>
<feBlend mode="normal" in="SourceGraphic" in2="effect1_dropShadow_579_54" result="shape"/>
<feColorMatrix in="SourceAlpha" type="matrix" values="0 0 0 0 0 0 0 0 0 0 0 0 0 0 0 0 0 0 127 0" result="hardAlpha"/>
<feOffset dy="1"/>
<feGaussianBlur stdDeviation="1"/>
<feComposite in2="hardAlpha" operator="arithmetic" k2="-1" k3="1"/>
<feColorMatrix type="matrix" values="0 0 0 0 0 0 0 0 0 0 0 0 0 0 0 0 0 0 0.15 0"/>
<feBlend mode="normal" in2="shape" result="effect2_innerShadow_579_54"/>
</filter>
<filter id="filter7_ddddddii_579_54" x="197.361" y="278.372" width="50.5439" height="50.5429" filterUnits="userSpaceOnUse" color-interpolation-filters="sRGB">
<feFlood flood-opacity="0" result="BackgroundImageFix"/>
<feColorMatrix in="SourceAlpha" type="matrix" values="0 0 0 0 0 0 0 0 0 0 0 0 0 0 0 0 0 0 127 0" result="hardAlpha"/>
<feOffset dx="-0.5" dy="-0.5"/>
<feComposite in2="hardAlpha" operator="out"/>
<feColorMatrix type="matrix" values="0 0 0 0 0 0 0 0 0 0 0 0 0 0 0 0 0 0 0.1 0"/>
<feBlend mode="normal" in2="BackgroundImageFix" result="effect1_dropShadow_579_54"/>
<feColorMatrix in="SourceAlpha" type="matrix" values="0 0 0 0 0 0 0 0 0 0 0 0 0 0 0 0 0 0 127 0" result="hardAlpha"/>
<feMorphology radius="2.5" operator="erode" in="SourceAlpha" result="effect2_dropShadow_579_54"/>
<feOffset dx="2.5" dy="2.5"/>
<feGaussianBlur stdDeviation="1.5"/>
<feComposite in2="hardAlpha" operator="out"/>
<feColorMatrix type="matrix" values="0 0 0 0 0 0 0 0 0 0 0 0 0 0 0 0 0 0 0.15 0"/>
<feBlend mode="normal" in2="effect1_dropShadow_579_54" result="effect2_dropShadow_579_54"/>
<feColorMatrix in="SourceAlpha" type="matrix" values="0 0 0 0 0 0 0 0 0 0 0 0 0 0 0 0 0 0 127 0" result="hardAlpha"/>
<feMorphology radius="2" operator="erode" in="SourceAlpha" result="effect3_dropShadow_579_54"/>
<feOffset dx="2.95" dy="2.95"/>
<feGaussianBlur stdDeviation="2.086"/>
<feComposite in2="hardAlpha" operator="out"/>
<feColorMatrix type="matrix" values="0 0 0 0 0 0 0 0 0 0 0 0 0 0 0 0 0 0 0.1 0"/>
<feBlend mode="normal" in2="effect2_dropShadow_579_54" result="effect3_dropShadow_579_54"/>
<feColorMatrix in="SourceAlpha" type="matrix" values="0 0 0 0 0 0 0 0 0 0 0 0 0 0 0 0 0 0 127 0" result="hardAlpha"/>
<feMorphology radius="1.5" operator="erode" in="SourceAlpha" result="effect4_dropShadow_579_54"/>
<feOffset dx="1.329" dy="1.329"/>
<feGaussianBlur stdDeviation="0.94"/>
<feComposite in2="hardAlpha" operator="out"/>
<feColorMatrix type="matrix" values="0 0 0 0 0 0 0 0 0 0 0 0 0 0 0 0 0 0 0.25 0"/>
<feBlend mode="normal" in2="effect3_dropShadow_579_54" result="effect4_dropShadow_579_54"/>
<feColorMatrix in="SourceAlpha" type="matrix" values="0 0 0 0 0 0 0 0 0 0 0 0 0 0 0 0 0 0 127 0" result="hardAlpha"/>
<feMorphology radius="1" operator="erode" in="SourceAlpha" result="effect5_dropShadow_579_54"/>
<feOffset dx="0.605" dy="0.605"/>
<feGaussianBlur stdDeviation="0.428"/>
<feComposite in2="hardAlpha" operator="out"/>
<feColorMatrix type="matrix" values="0 0 0 0 0 0 0 0 0 0 0 0 0 0 0 0 0 0 0.18 0"/>
<feBlend mode="normal" in2="effect4_dropShadow_579_54" result="effect5_dropShadow_579_54"/>
<feColorMatrix in="SourceAlpha" type="matrix" values="0 0 0 0 0 0 0 0 0 0 0 0 0 0 0 0 0 0 127 0" result="hardAlpha"/>
<feMorphology radius="0.5" operator="erode" in="SourceAlpha" result="effect6_dropShadow_579_54"/>
<feOffset dx="0.222" dy="0.222"/>
<feGaussianBlur stdDeviation="0.157"/>
<feComposite in2="hardAlpha" operator="out"/>
<feColorMatrix type="matrix" values="0 0 0 0 0 0 0 0 0 0 0 0 0 0 0 0 0 0 0.2 0"/>
<feBlend mode="normal" in2="effect5_dropShadow_579_54" result="effect6_dropShadow_579_54"/>
<feBlend mode="normal" in="SourceGraphic" in2="effect6_dropShadow_579_54" result="shape"/>
<feColorMatrix in="SourceAlpha" type="matrix" values="0 0 0 0 0 0 0 0 0 0 0 0 0 0 0 0 0 0 127 0" result="hardAlpha"/>
<feOffset dx="-0.5" dy="-0.5"/>
<feGaussianBlur stdDeviation="0.5"/>
<feComposite in2="hardAlpha" operator="arithmetic" k2="-1" k3="1"/>
<feColorMatrix type="matrix" values="0 0 0 0 0 0 0 0 0 0 0 0 0 0 0 0 0 0 0.15 0"/>
<feBlend mode="normal" in2="shape" result="effect7_innerShadow_579_54"/>
<feColorMatrix in="SourceAlpha" type="matrix" values="0 0 0 0 0 0 0 0 0 0 0 0 0 0 0 0 0 0 127 0" result="hardAlpha"/>
<feOffset dx="0.5" dy="0.5"/>
<feGaussianBlur stdDeviation="0.5"/>
<feComposite in2="hardAlpha" operator="arithmetic" k2="-1" k3="1"/>
<feColorMatrix type="matrix" values="0 0 0 0 1 0 0 0 0 1 0 0 0 0 1 0 0 0 1 0"/>
<feBlend mode="normal" in2="effect7_innerShadow_579_54" result="effect8_innerShadow_579_54"/>
</filter>
<filter id="filter8_ddddddii_579_54" x="464.482" y="278.372" width="50.5439" height="50.5429" filterUnits="userSpaceOnUse" color-interpolation-filters="sRGB">
<feFlood flood-opacity="0" result="BackgroundImageFix"/>
<feColorMatrix in="SourceAlpha" type="matrix" values="0 0 0 0 0 0 0 0 0 0 0 0 0 0 0 0 0 0 127 0" result="hardAlpha"/>
<feOffset dx="-0.5" dy="-0.5"/>
<feComposite in2="hardAlpha" operator="out"/>
<feColorMatrix type="matrix" values="0 0 0 0 0 0 0 0 0 0 0 0 0 0 0 0 0 0 0.1 0"/>
<feBlend mode="normal" in2="BackgroundImageFix" result="effect1_dropShadow_579_54"/>
<feColorMatrix in="SourceAlpha" type="matrix" values="0 0 0 0 0 0 0 0 0 0 0 0 0 0 0 0 0 0 127 0" result="hardAlpha"/>
<feMorphology radius="2.5" operator="erode" in="SourceAlpha" result="effect2_dropShadow_579_54"/>
<feOffset dx="2.5" dy="2.5"/>
<feGaussianBlur stdDeviation="1.5"/>
<feComposite in2="hardAlpha" operator="out"/>
<feColorMatrix type="matrix" values="0 0 0 0 0 0 0 0 0 0 0 0 0 0 0 0 0 0 0.15 0"/>
<feBlend mode="normal" in2="effect1_dropShadow_579_54" result="effect2_dropShadow_579_54"/>
<feColorMatrix in="SourceAlpha" type="matrix" values="0 0 0 0 0 0 0 0 0 0 0 0 0 0 0 0 0 0 127 0" result="hardAlpha"/>
<feMorphology radius="2" operator="erode" in="SourceAlpha" result="effect3_dropShadow_579_54"/>
<feOffset dx="2.95" dy="2.95"/>
<feGaussianBlur stdDeviation="2.086"/>
<feComposite in2="hardAlpha" operator="out"/>
<feColorMatrix type="matrix" values="0 0 0 0 0 0 0 0 0 0 0 0 0 0 0 0 0 0 0.1 0"/>
<feBlend mode="normal" in2="effect2_dropShadow_579_54" result="effect3_dropShadow_579_54"/>
<feColorMatrix in="SourceAlpha" type="matrix" values="0 0 0 0 0 0 0 0 0 0 0 0 0 0 0 0 0 0 127 0" result="hardAlpha"/>
<feMorphology radius="1.5" operator="erode" in="SourceAlpha" result="effect4_dropShadow_579_54"/>
<feOffset dx="1.329" dy="1.329"/>
<feGaussianBlur stdDeviation="0.94"/>
<feComposite in2="hardAlpha" operator="out"/>
<feColorMatrix type="matrix" values="0 0 0 0 0 0 0 0 0 0 0 0 0 0 0 0 0 0 0.25 0"/>
<feBlend mode="normal" in2="effect3_dropShadow_579_54" result="effect4_dropShadow_579_54"/>
<feColorMatrix in="SourceAlpha" type="matrix" values="0 0 0 0 0 0 0 0 0 0 0 0 0 0 0 0 0 0 127 0" result="hardAlpha"/>
<feMorphology radius="1" operator="erode" in="SourceAlpha" result="effect5_dropShadow_579_54"/>
<feOffset dx="0.605" dy="0.605"/>
<feGaussianBlur stdDeviation="0.428"/>
<feComposite in2="hardAlpha" operator="out"/>
<feColorMatrix type="matrix" values="0 0 0 0 0 0 0 0 0 0 0 0 0 0 0 0 0 0 0.18 0"/>
<feBlend mode="normal" in2="effect4_dropShadow_579_54" result="effect5_dropShadow_579_54"/>
<feColorMatrix in="SourceAlpha" type="matrix" values="0 0 0 0 0 0 0 0 0 0 0 0 0 0 0 0 0 0 127 0" result="hardAlpha"/>
<feMorphology radius="0.5" operator="erode" in="SourceAlpha" result="effect6_dropShadow_579_54"/>
<feOffset dx="0.222" dy="0.222"/>
<feGaussianBlur stdDeviation="0.157"/>
<feComposite in2="hardAlpha" operator="out"/>
<feColorMatrix type="matrix" values="0 0 0 0 0 0 0 0 0 0 0 0 0 0 0 0 0 0 0.2 0"/>
<feBlend mode="normal" in2="effect5_dropShadow_579_54" result="effect6_dropShadow_579_54"/>
<feBlend mode="normal" in="SourceGraphic" in2="effect6_dropShadow_579_54" result="shape"/>
<feColorMatrix in="SourceAlpha" type="matrix" values="0 0 0 0 0 0 0 0 0 0 0 0 0 0 0 0 0 0 127 0" result="hardAlpha"/>
<feOffset dx="-0.5" dy="-0.5"/>
<feGaussianBlur stdDeviation="0.5"/>
<feComposite in2="hardAlpha" operator="arithmetic" k2="-1" k3="1"/>
<feColorMatrix type="matrix" values="0 0 0 0 0 0 0 0 0 0 0 0 0 0 0 0 0 0 0.15 0"/>
<feBlend mode="normal" in2="shape" result="effect7_innerShadow_579_54"/>
<feColorMatrix in="SourceAlpha" type="matrix" values="0 0 0 0 0 0 0 0 0 0 0 0 0 0 0 0 0 0 127 0" result="hardAlpha"/>
<feOffset dx="0.5" dy="0.5"/>
<feGaussianBlur stdDeviation="0.5"/>
<feComposite in2="hardAlpha" operator="arithmetic" k2="-1" k3="1"/>
<feColorMatrix type="matrix" values="0 0 0 0 1 0 0 0 0 1 0 0 0 0 1 0 0 0 1 0"/>
<feBlend mode="normal" in2="effect7_innerShadow_579_54" result="effect8_innerShadow_579_54"/>
</filter>
</defs>
</svg>
